<mxfile host="app.diagrams.net" agent="Mozilla/5.0 (Windows NT 10.0; Win64; x64; rv:130.0) Gecko/20100101 Firefox/130.0" version="24.7.17">
  <diagram name="Page-1" id="VoJw-NflkOjj5ZJhAXec">
    <mxGraphModel dx="880" dy="422" grid="1" gridSize="10" guides="1" tooltips="1" connect="1" arrows="1" fold="1" page="1" pageScale="1" pageWidth="850" pageHeight="1100" math="0" shadow="0">
      <root>
        <mxCell id="0" />
        <mxCell id="1" parent="0" />
        <mxCell id="TO3GSNsotC0VCkn-J8UO-3" value="Start" style="rounded=1;whiteSpace=wrap;html=1;" vertex="1" parent="1">
          <mxGeometry x="190" y="70" width="120" height="60" as="geometry" />
        </mxCell>
        <mxCell id="TO3GSNsotC0VCkn-J8UO-4" value="" style="endArrow=classic;html=1;rounded=0;" edge="1" parent="1">
          <mxGeometry width="50" height="50" relative="1" as="geometry">
            <mxPoint x="250" y="140" as="sourcePoint" />
            <mxPoint x="250" y="200" as="targetPoint" />
            <Array as="points">
              <mxPoint x="250" y="130" />
            </Array>
          </mxGeometry>
        </mxCell>
        <mxCell id="TO3GSNsotC0VCkn-J8UO-9" value="Seven Segment diatur pada angka 20" style="ellipse;whiteSpace=wrap;html=1;" vertex="1" parent="1">
          <mxGeometry x="210" y="200" width="80" height="80" as="geometry" />
        </mxCell>
        <mxCell id="TO3GSNsotC0VCkn-J8UO-10" value="" style="edgeStyle=none;orthogonalLoop=1;jettySize=auto;html=1;rounded=0;exitX=0.4;exitY=0.963;exitDx=0;exitDy=0;exitPerimeter=0;" edge="1" parent="1" source="TO3GSNsotC0VCkn-J8UO-9">
          <mxGeometry width="100" relative="1" as="geometry">
            <mxPoint x="190" y="330" as="sourcePoint" />
            <mxPoint x="240" y="340" as="targetPoint" />
            <Array as="points" />
          </mxGeometry>
        </mxCell>
        <mxCell id="TO3GSNsotC0VCkn-J8UO-13" value="" style="edgeStyle=orthogonalEdgeStyle;rounded=0;orthogonalLoop=1;jettySize=auto;html=1;" edge="1" parent="1" source="TO3GSNsotC0VCkn-J8UO-11" target="TO3GSNsotC0VCkn-J8UO-12">
          <mxGeometry relative="1" as="geometry" />
        </mxCell>
        <mxCell id="TO3GSNsotC0VCkn-J8UO-11" value="angka ditampilakan pada layar seven segment&amp;nbsp; " style="whiteSpace=wrap;html=1;" vertex="1" parent="1">
          <mxGeometry x="190" y="340" width="120" height="60" as="geometry" />
        </mxCell>
        <mxCell id="TO3GSNsotC0VCkn-J8UO-15" value="" style="edgeStyle=orthogonalEdgeStyle;rounded=0;orthogonalLoop=1;jettySize=auto;html=1;" edge="1" parent="1" source="TO3GSNsotC0VCkn-J8UO-12" target="TO3GSNsotC0VCkn-J8UO-14">
          <mxGeometry relative="1" as="geometry" />
        </mxCell>
        <mxCell id="TO3GSNsotC0VCkn-J8UO-12" value="angka berubah menjadi 19" style="ellipse;whiteSpace=wrap;html=1;" vertex="1" parent="1">
          <mxGeometry x="210" y="470" width="80" height="80" as="geometry" />
        </mxCell>
        <mxCell id="TO3GSNsotC0VCkn-J8UO-14" value="apakah nilai mencapai 0" style="rhombus;whiteSpace=wrap;html=1;" vertex="1" parent="1">
          <mxGeometry x="210" y="640" width="80" height="90" as="geometry" />
        </mxCell>
        <mxCell id="TO3GSNsotC0VCkn-J8UO-17" value="" style="edgeStyle=none;orthogonalLoop=1;jettySize=auto;html=1;rounded=0;exitX=0.475;exitY=0.911;exitDx=0;exitDy=0;exitPerimeter=0;" edge="1" parent="1" source="TO3GSNsotC0VCkn-J8UO-14">
          <mxGeometry width="100" relative="1" as="geometry">
            <mxPoint x="200" y="720" as="sourcePoint" />
            <mxPoint x="250" y="750" as="targetPoint" />
            <Array as="points" />
          </mxGeometry>
        </mxCell>
        <mxCell id="TO3GSNsotC0VCkn-J8UO-18" value="Selesai" style="whiteSpace=wrap;html=1;" vertex="1" parent="1">
          <mxGeometry x="190" y="750" width="120" height="60" as="geometry" />
        </mxCell>
      </root>
    </mxGraphModel>
  </diagram>
</mxfile>
